<?xml version="1.0" encoding="UTF-8" standalone="no"?>
<svg
   xmlns:dc="http://purl.org/dc/elements/1.1/"
   xmlns:cc="http://creativecommons.org/ns#"
   xmlns:rdf="http://www.w3.org/1999/02/22-rdf-syntax-ns#"
   xmlns:svg="http://www.w3.org/2000/svg"
   xmlns="http://www.w3.org/2000/svg"
   xmlns:sodipodi="http://sodipodi.sourceforge.net/DTD/sodipodi-0.dtd"
   xmlns:inkscape="http://www.inkscape.org/namespaces/inkscape"
   enable-background="new 0 0 140 140"
   height="512"
   viewBox="0 0 140 140"
   width="512"
   version="1.1"
   id="svg36"
   sodipodi:docname="portfolio.svg"
   inkscape:version="1.0.1 (3bc2e813f5, 2020-09-07)">
  <metadata
     id="metadata42">
    <rdf:RDF>
      <cc:Work
         rdf:about="">
        <dc:format>image/svg+xml</dc:format>
        <dc:type
           rdf:resource="http://purl.org/dc/dcmitype/StillImage" />
      </cc:Work>
    </rdf:RDF>
  </metadata>
  <defs
     id="defs40" />
  <sodipodi:namedview
     pagecolor="#ffffff"
     bordercolor="#666666"
     borderopacity="1"
     objecttolerance="10"
     gridtolerance="10"
     guidetolerance="10"
     inkscape:pageopacity="0"
     inkscape:pageshadow="2"
     inkscape:window-width="1920"
     inkscape:window-height="1017"
     id="namedview38"
     showgrid="false"
     inkscape:zoom="1.1739077"
     inkscape:cx="275.73558"
     inkscape:cy="226.19418"
     inkscape:window-x="-8"
     inkscape:window-y="-8"
     inkscape:window-maximized="1"
     inkscape:current-layer="svg36" />
  <g
     id="Circle_Grid"
     data-name="Circle Grid"
     transform="matrix(1.0461397,0,0,0.99209558,0.52340919,7.7411766)">
    <circle
       cx="63.972"
       cy="64"
       fill="#3b5059"
       r="64"
       id="circle2" />
  </g>
  <path
     d="m97.1394806 46.734005h-12.25l-6.2900391-6.2897949c-1.5999756-1.5200195-3.6699219-2.7802734-6.0500488-3.6501465-2.3798828-.880127-5.0699463-1.369873-7.9299316-1.369873-9.049984 0-16.5200157 4.9697266-17.4000206 11.3098145h-15.1199952c-1.6900043 0-3.0599995 1.3701172-3.0599995 3.0600586v47.2199745c0 .6699219.2200317 1.2800293.5800171 1.7800293l.0299683.0400391c.1799927.2399902.3900146.4499512.6300049.6298828l34.2769165 34.2768555c2.0787354.1845703 4.1685791.2700195 6.2628174.2507324 11.2958984-.1633301 22.6918945-3.3186035 32.9669189-9.7504883 15.9678955-9.9953613 26.0013428-25.8823242 29.0535889-43.0766602l-33.5302753-33.5302773c-.5499268-.5600586-1.3199463-.9001465-2.1699219-.9001465z"
     opacity=".1"
     id="path6" />
  <path
     d="m64.6233368 60.5493431c-9.6441956 0-17.4899445-5.635704-17.4899445-12.5625076s7.8457489-12.5614586 17.4899445-12.5614586 17.4912491 5.634655 17.4912491 12.5614586-7.8470459 12.5625076-17.4912491 12.5625076zm0-21.8993645c-7.4397316 0-13.4922409 4.1882019-13.4922409 9.3368568s6.0525093 9.3379097 13.4922409 9.3379097 13.4935532-4.1892547 13.4935532-9.3379096-6.0538178-9.3368569-13.4935532-9.3368569z"
     fill="#293b44"
     id="path8" />
  <path
     d="m97.1440964 46.7334099h-65.0434914c-1.6907635 0-3.0612469 1.3706093-3.0612469 3.0611115v47.2162132c0 1.6907578 1.3704834 3.0611115 3.0612469 3.0611115h65.0434875c1.6906357 0 3.0612488-1.3703537 3.0612488-3.0611115v-47.2162133c.0000039-1.6905021-1.3706092-3.0611114-3.0612449-3.0611114z"
     fill="#293b44"
     id="path10" />
  <path
     d="m97.1475067 46.7373428h-65.0448036c-1.6906319 0-3.0611134 1.3703537-3.0611134 3.0611153v11.3766365c0 .8520737.3385201 1.6689835.9407711 2.2714996l6.7496719 6.7496719c.6022491.6022491 1.4194221.9407654 2.2713623.9407654h51.2326584c.8520737 0 1.6689835-.3385162 2.2714996-.9407654l6.76017-6.7604332c.6025085-.6022491.9408951-1.4194221.9408951-2.2712326v-11.3661422c.0000001-1.6907616-1.3704757-3.0611153-3.0611114-3.0611153z"
     fill="#344d5b"
     id="path12" />
  <path
     d="m61.899414 66.261902h5.451386v10.714878h-5.451386z"
     fill="#feda6f"
     id="path14" />
  <path
     d="m63.221378 67.490318h2.807452v8.258044h-2.807452z"
     fill="#f2c144"
     id="path16" />
  <path
     d="m103.1945877 61.0372391h6.3522644c.9636688 0 1.747551.7802849 1.747551 1.7403564v35.4256058c0 .9636688-.7838821 1.7403564-1.747551 1.7403564h-28.5331497c-.9636688 0-1.7475433-.7766876-1.7475433-1.7403564v-35.4256058c0-.9600716.7838745-1.7403564 1.7475433-1.7403564h6.3414841"
     fill="#d6683d"
     id="path18" />
  <path
     d="m102.6071396 62.848526h6.7745056v35.2837448h-28.2018814v-35.2837448h6.7745056"
     fill="#ebf0f3"
     id="path20" />
  <path
     d="m103.4442368 59.8026237-4.9099045-1.8237839c0-1.5256805-1.4312363-2.763092-3.1953812-2.763092h-.1192703c-1.7642059 0-3.1905212 1.2374115-3.1905212 2.763092l-4.9098511 1.8237839c-.7504044.2783241-1.1280975 1.0187798-.854744 1.6895943l1.0485001 2.6090088h15.9323807l1.0535431-2.6090088c.2683715-.6708145-.1043473-1.4112701-.8547516-1.6895943zm-8.1649781.5466996c-1.1082001 0-2.0077133-.8646965-2.0077133-1.9282455 0-1.0684052.8995132-1.9281235 2.0077133-1.9281235 1.1131668 0 2.0126877.8597183 2.0126877 1.9281235 0 1.063549-.8995209 1.9282455-2.0126877 1.9282455z"
     fill="#feda6f"
     id="path22" />
  <g
     fill="#e1e6e9"
     id="g34">
    <path
       d="m84.258354 68.375374h22.044697v1.962643h-22.044697z"
       id="path24" />
    <path
       d="m84.258354 73.942223h22.044697v1.962643h-22.044697z"
       id="path26" />
    <path
       d="m84.258354 79.509079h22.044697v1.962643h-22.044697z"
       id="path28" />
    <path
       d="m84.258354 85.075928h22.044697v1.962643h-22.044697z"
       id="path30" />
    <path
       d="m84.258354 90.642784h22.044697v1.962643h-22.044697z"
       id="path32" />
  </g>
</svg>
